HIERARCHY
ROOT root
{
	OFFSET 0.000000 0.000000 0.000000
	CHANNELS 6 Xposition Yposition Zposition Zrotation Yrotation Xrotation
	JOINT lhip
	{
		OFFSET 0.058581 -0.082280 -0.017664
		CHANNELS 3 Zrotation Yrotation Xrotation
		JOINT lknee
		{
			OFFSET 0.043451 -0.386469 0.008037
			CHANNELS 3 Zrotation Yrotation Xrotation
			JOINT lankle
			{
				OFFSET -0.014790 -0.426874 -0.037428
				CHANNELS 3 Zrotation Yrotation Xrotation
				JOINT ltoe
				{
					OFFSET 0.041054 -0.060286 0.122042
					CHANNELS 3 Zrotation Yrotation Xrotation
					End Site
					{
						OFFSET 0.000000 0.000000 0.000000
					}
				}
			}
		}
	}
	JOINT rhip
	{
		OFFSET -0.060310 -0.090513 -0.013543
		CHANNELS 3 Zrotation Yrotation Xrotation
		JOINT rknee
		{
			OFFSET -0.043257 -0.383688 -0.004843
			CHANNELS 3 Zrotation Yrotation Xrotation
			JOINT rankle
			{
				OFFSET 0.019056 -0.420046 -0.034562
				CHANNELS 3 Zrotation Yrotation Xrotation
				JOINT rtoe
				{
					OFFSET -0.034840 -0.062106 0.130323
					CHANNELS 3 Zrotation Yrotation Xrotation
					End Site
					{
						OFFSET 0.000000 0.000000 0.000000
					}
				}
			}
		}
	}
	JOINT lowerback
	{
		OFFSET 0.004439 0.124404 -0.038385
		CHANNELS 3 Zrotation Yrotation Xrotation
		JOINT upperback
		{
			OFFSET 0.004488 0.137956 0.026820
			CHANNELS 3 Zrotation Yrotation Xrotation
			JOINT chest
			{
				OFFSET -0.002265 0.056032 0.002855
				CHANNELS 3 Zrotation Yrotation Xrotation
				JOINT lowerneck
				{
					OFFSET -0.013390 0.211636 -0.033468
					CHANNELS 3 Zrotation Yrotation Xrotation
					JOINT upperneck
					{
						OFFSET 0.010113 0.088937 0.050410
						CHANNELS 3 Zrotation Yrotation Xrotation
						End Site
						{
							OFFSET 0.000000 0.000000 0.000000
						}
					}
				}
				JOINT lclavicle
				{
					OFFSET 0.071702 0.114000 -0.018898
					CHANNELS 3 Zrotation Yrotation Xrotation
					JOINT lshoulder
					{
						OFFSET 0.122921 0.045205 -0.019046
						CHANNELS 3 Zrotation Yrotation Xrotation
						JOINT lelbow
						{
							OFFSET 0.255332 -0.015649 -0.022946
							CHANNELS 3 Zrotation Yrotation Xrotation
							JOINT lwrist
							{
								OFFSET 0.265709 0.012698 -0.007375
								CHANNELS 3 Zrotation Yrotation Xrotation
								End Site
								{
									OFFSET 0.000000 0.000000 0.000000
								}
							}
						}
					}
				}
				JOINT rclavicle
				{
					OFFSET -0.082954 0.112472 -0.023707
					CHANNELS 3 Zrotation Yrotation Xrotation
					JOINT rshoulder
					{
						OFFSET -0.113228 0.046853 -0.008472
						CHANNELS 3 Zrotation Yrotation Xrotation
						JOINT relbow
						{
							OFFSET -0.260127 -0.014369 -0.031269
							CHANNELS 3 Zrotation Yrotation Xrotation
							JOINT rwrist
							{
								OFFSET -0.269108 0.006794 -0.006027
								CHANNELS 3 Zrotation Yrotation Xrotation
								End Site
								{
									OFFSET 0.000000 0.000000 0.000000
								}
							}
						}
					}
				}
			}
		}
	}
}
MOTION
Frames: 13
Frame Time: 0.033333
0.142521 0.201573 0.991972 -35.212882 16.152007 108.908442 25.466172 11.373543 -56.813371 -4.514483 15.280234 29.513575 -0.307146 5.828918 4.727731 0.000000 -0.000000 0.000000 -13.675087 -19.584347 9.176620 9.612273 1.726192 10.232306 21.279948 6.789375 28.167797 0.000000 -0.000000 0.000000 -4.946492 17.730598 14.734352 0.433872 -3.068885 -5.195739 3.088201 2.065568 -4.991939 4.491017 3.269204 -10.686305 10.122535 3.330335 5.557973 -27.967242 -0.239534 4.035781 -43.113726 7.853423 -8.538734 23.278271 -21.052253 -16.803275 12.170134 -7.108338 -2.292680 23.735867 9.843356 7.134377 26.803763 15.400337 -3.502635 -13.796293 52.496212 4.990418 7.353843 6.202546 -4.224587 
0.142551 0.170453 1.004195 -33.047559 16.663920 109.829122 24.884773 8.588113 -55.165057 -4.423578 14.536408 27.388857 0.249850 7.339483 2.438497 0.000000 -0.000000 0.000000 -13.618645 -16.146730 9.203048 9.108389 2.112567 16.811928 21.472021 6.466702 23.045690 0.000000 -0.000000 0.000000 -4.895362 16.425320 14.735758 1.194608 -2.716031 -5.039224 2.910278 2.461523 -4.346703 5.472614 3.555782 -11.576772 9.015980 1.942073 6.229666 -28.112042 0.252536 3.234537 -43.801108 6.849473 -6.417883 22.860281 -21.155020 -16.075911 11.190491 -7.627176 -2.790981 24.017848 8.862804 6.042918 26.072476 13.641977 -1.862741 -12.965653 49.931815 6.141368 7.492038 5.944062 -3.095935 
0.143863 0.140135 1.015010 -30.433541 15.858916 110.734285 23.077293 5.023624 -53.374041 -4.630631 13.516145 24.940627 1.391392 7.748653 1.992440 0.000000 -0.000000 0.000000 -14.292260 -12.326342 8.107720 7.210905 0.073258 27.897585 17.746038 -1.314789 20.331885 0.000000 -0.000000 0.000000 -5.515438 14.776138 13.795032 2.084111 -2.301263 -4.904332 2.762565 2.402153 -3.214074 6.270584 2.182549 -11.737720 8.087042 2.478574 6.864732 -28.534292 1.198491 3.108413 -43.758334 4.881714 -4.720079 22.109700 -20.853212 -15.223385 11.479113 -8.075988 -2.570680 24.552931 7.310262 4.839906 26.175630 11.315151 1.052149 -14.427739 46.746365 3.066582 8.022721 5.700738 -1.143051 
0.145628 0.109839 1.025758 -27.461459 14.475201 111.220004 20.288035 1.311432 -50.579653 -5.387148 10.463740 21.091081 2.912239 9.096705 1.817946 0.000000 -0.000000 0.000000 -15.482477 -9.525833 6.791587 5.587039 -0.852667 42.847249 13.551741 -8.748183 17.029240 0.000000 -0.000000 0.000000 -5.954434 13.224954 12.793314 2.963937 -2.291044 -4.395370 2.717711 1.791777 -2.712404 6.744453 0.478410 -11.018883 7.155859 3.281104 7.101350 -29.148528 1.719295 3.388370 -43.073795 3.911137 -3.848390 21.540092 -20.958494 -14.456347 11.254956 -7.559712 -2.501456 25.111136 6.073790 3.949263 26.387365 8.177103 3.184960 -15.609436 43.392152 -0.094282 9.784227 5.040511 -0.425963 
0.146951 0.079411 1.035766 -24.539276 13.291530 110.437534 17.311858 -1.437317 -46.154512 -6.191650 6.893160 17.304884 4.023545 10.863428 0.869676 0.000000 -0.000000 0.000000 -16.774280 -7.824878 6.391896 6.119510 0.284021 58.859218 12.802244 -9.028364 13.618275 0.000000 -0.000000 0.000000 -5.556102 11.754067 13.048125 3.646494 -2.507673 -3.906064 2.725327 1.012009 -2.820055 7.206313 -0.131232 -9.968602 6.030530 3.347757 7.402583 -29.989088 1.496011 3.215251 -41.688367 4.404580 -3.794728 21.545802 -21.384912 -15.570289 9.682674 -7.083224 -2.157950 25.902415 5.148006 3.270876 26.171873 4.673066 3.761146 -15.163252 40.645415 -2.237888 10.201219 4.198802 0.460128 
0.147493 0.050051 1.044331 -22.105175 12.678723 108.782189 14.907377 -2.643294 -40.921547 -7.087355 3.364024 14.644877 4.168062 11.659873 0.238726 0.000000 -0.000000 0.000000 -17.681585 -6.235140 6.146287 7.211742 0.860540 74.410546 10.741509 -7.985903 9.364932 0.000000 -0.000000 0.000000 -4.610656 10.193549 13.925965 4.167968 -2.271522 -3.155590 2.733394 0.270392 -3.478304 7.590571 -0.280629 -8.736492 5.056394 3.398210 7.901061 -30.820548 0.975928 3.035368 -40.307079 4.865846 -4.072571 22.393295 -21.590606 -18.134109 9.098620 -7.019302 -2.038144 26.526482 4.377627 2.477958 25.737663 1.301822 3.799713 -13.325952 37.614581 -3.122989 9.871486 3.905913 0.982908 
0.148138 0.022242 1.050772 -20.090085 12.531103 106.856699 13.042728 -2.925499 -35.576114 -7.746319 0.339212 12.430151 4.294679 12.398208 -0.254280 0.000000 -0.000000 0.000000 -18.146346 -4.590732 5.181201 6.523947 1.145491 89.033401 7.101496 -11.284632 4.993588 0.000000 -0.000000 0.000000 -3.104984 8.444243 15.096084 4.421332 -1.560638 -3.340210 2.580129 -0.420461 -3.306689 7.860561 -0.977861 -8.356869 4.232311 4.108965 9.021761 -31.295917 0.902393 2.808842 -39.430513 4.293477 -4.616500 23.790641 -22.086401 -20.659336 9.341259 -6.785610 -3.565568 26.632280 3.520924 1.245376 25.862022 -1.722625 4.402023 -12.022082 34.183883 -4.142104 10.517122 3.556924 1.649993 
0.149101 -0.005372 1.055671 -18.574316 12.563125 104.613928 11.331885 -2.793921 -29.665643 -7.974378 -3.320002 10.096392 4.035255 13.359912 -0.459636 0.000000 -0.000000 0.000000 -19.341920 -2.686820 3.541965 5.307346 1.460415 101.823286 4.034792 -13.416277 -2.012292 0.000000 -0.000000 0.000000 -1.427176 6.567582 16.240705 4.416890 -0.795231 -3.254469 2.280226 -0.805821 -3.339271 8.022163 -1.298031 -7.000881 3.613522 4.593915 9.122499 -31.484490 0.884837 2.236955 -38.772339 3.758769 -5.320277 24.505622 -23.165256 -21.740214 8.231487 -5.930181 -3.542138 26.451091 3.043055 0.633981 26.180060 -4.485426 4.367262 -10.844600 30.773030 -4.849889 10.630635 3.023998 2.819550 
0.149063 -0.032480 1.058925 -17.495680 12.528434 102.568004 10.257654 -2.479215 -24.016936 -8.321495 -5.977691 7.834164 3.597909 14.262297 -0.190317 0.000000 -0.000000 0.000000 -21.431935 -0.618317 -0.048905 3.789167 1.371265 112.537718 2.207329 -16.222358 -6.824929 0.000000 -0.000000 0.000000 -0.512294 4.620110 16.521987 4.536475 0.054434 -2.738302 2.009643 -0.905256 -3.452475 8.115741 -1.966330 -4.953160 3.078572 5.264539 8.952171 -31.825223 1.065406 2.181202 -37.710284 3.236611 -5.941238 25.099340 -25.296839 -22.285196 5.610874 -5.485839 -3.178635 26.494654 2.569561 0.513486 26.341252 -6.875284 4.274852 -10.250823 27.677086 -6.084769 11.767625 2.371501 3.944009 
0.147331 -0.059887 1.061256 -16.612619 12.356562 100.235921 9.506797 -1.854177 -17.977924 -8.924874 -8.680804 5.620608 2.979197 15.022026 -0.925945 0.000000 -0.000000 0.000000 -23.011706 1.155962 -4.553198 3.820969 0.585088 118.635142 2.482545 -16.280828 -9.823692 0.000000 -0.000000 0.000000 -0.215389 2.561698 16.643310 4.662509 0.932592 -1.865931 1.760352 -0.971475 -3.605920 8.308176 -1.949977 -3.029011 2.699169 5.365052 9.275150 -32.148117 1.463678 1.676216 -36.258059 3.042496 -5.963062 25.127511 -27.854669 -22.286772 3.764542 -5.216123 -2.230639 26.808240 1.955086 0.459376 26.398856 -8.700986 4.634591 -9.828729 24.909958 -7.222688 12.628219 1.830899 4.372995 
0.145302 -0.088343 1.061692 -15.367644 11.980109 97.838656 8.745834 -1.160221 -12.203781 -9.517547 -11.031811 4.055623 2.886266 15.205369 -0.695905 0.000000 -0.000000 0.000000 -23.347241 2.401851 -9.738935 4.856686 -1.644534 118.379326 1.875376 -13.346749 -6.413848 0.000000 -0.000000 0.000000 -0.153282 0.282640 16.921605 4.606971 1.524196 -1.370612 1.481650 -0.986280 -3.264775 8.321476 -1.617212 -1.242987 2.746300 5.238091 9.238010 -32.266838 1.817473 0.974832 -35.244673 2.650874 -5.463517 25.821268 -29.976642 -22.814800 1.748715 -5.622370 -0.293545 27.046700 1.124082 0.266387 26.699729 -9.870220 4.757040 -9.468485 22.351087 -7.294605 12.635771 1.458990 4.370238 
0.143787 -0.115454 1.060515 -13.375697 11.554400 95.489942 7.757957 -1.407925 -6.929547 -9.342256 -14.303114 3.466099 2.215316 15.592147 -1.916157 0.000000 -0.000000 0.000000 -22.264607 3.260424 -15.077576 4.616167 -3.326560 114.228990 3.585119 -12.239217 -8.989092 0.000000 -0.000000 0.000000 -0.144953 -1.813447 18.107089 4.396686 1.662312 -2.156459 1.373973 -1.385374 -2.369923 8.674077 -1.200786 -0.297237 2.605296 4.767132 9.770697 -31.880825 2.318308 0.637747 -35.138928 1.343278 -4.383876 26.305123 -31.080854 -23.173900 2.144888 -6.115816 0.067520 26.999947 0.431816 0.003546 27.277210 -10.808899 4.837985 -9.065397 20.497398 -7.362731 11.645270 1.532299 4.591058 
0.141734 -0.141852 1.057940 -11.471329 11.084586 92.545445 6.626070 -1.261687 -1.196153 -8.909310 -17.081058 3.171302 1.764440 16.110101 -3.224361 0.000000 -0.000000 0.000000 -20.042595 3.267504 -19.805368 4.898989 -4.681160 108.572661 4.520499 -12.452361 -12.705890 0.000000 -0.000000 0.000000 -0.736607 -3.511736 19.775721 4.138954 1.674273 -2.930345 1.589430 -1.970516 -0.721283 9.050909 -0.649354 -0.390388 2.598110 4.589147 10.359367 -31.490998 2.299551 0.384799 -35.378261 -0.227928 -2.836352 26.559344 -31.381987 -23.158996 3.186288 -5.949158 -1.181235 26.896093 0.193061 -0.579106 27.912143 -11.284680 5.196944 -9.053370 19.108416 -7.794491 11.344659 1.271957 5.223192 
